:SAMPLES-PER-SECOND 30
:FULLY-SPECIFIED
:DEGREES
186
root  45.3228 38.4171 -7.22662 -169.23 40.242 -175.219
RightUpLeg  -32.4385 -17.6755 -3.89471
RightLeg  33.1106 -7.72955 -5.70475
RightFoot  2.81024 -0.583384 4.85309
RightToes  0.000482159 0.542163 -0.142577
Spine  43.8298 -1.75282 4.23541
Spine1  14.9648 1.88483 -5.44409
HEad  -9.86005 -1.69464 -10.434
LeftShoulder1  9.43964 -18.9499 -35.9104
LeftArm  -13.5503 -25.9375 -33.5754
LeftForeArm  -2.88174 -39.6081 -9.43921
LeftHand  -0.25398 0.0180481 5.50724
RightShoulder  5.5554 12.6835 28.3069
RightArm  -12.4947 27.8936 22.9376
RightForeArm  -39.3547 33.7253 9.31106
RightHand  -0.135441 -8.01868 3.05269
LeftUpLeg  -33.3471 28.155 -17.1641
LeftLeg  17.3558 -0.706675 -1.06191
LeftFoot  0.762703 -2.08151 19.3886
LeftToes  1.06247e-005 4.65855e-005 -8.18504e-006
187
root  46.4126 38.4484 -7.00129 -167.631 37.5721 -176.195
RightUpLeg  -32.3555 -15.1544 -5.83888
RightLeg  19.662 -9.95353 -3.88331
RightFoot  2.3098 -0.616627 5.28449
RightToes  0.000482159 0.542163 -0.142577
Spine  45.3724 -1.59887 3.48844
Spine1  14.9821 1.80408 -4.89317
HEad  -12.2974 -2.97896 -9.34177
LeftShoulder1  9.54126 -19.6515 -35.087
LeftArm  -14.9585 -32.0393 -35.0659
LeftForeArm  -3.47001 -33.5798 -7.65923
LeftHand  -0.25398 0.0180481 5.50724
RightShoulder  5.59668 13.0752 27.7249
RightArm  -13.2733 32.539 20.4191
RightForeArm  -37.2217 27.5298 7.55478
RightHand  -0.167636 -6.96795 8.22514
LeftUpLeg  -36.0057 27.7161 -17.8983
LeftLeg  18.9419 -3.26759 -1.58378
LeftFoot  0.680263 -1.98247 18.6076
LeftToes  1.06247e-005 4.65855e-005 -8.18504e-006
188
root  47.5229 38.4136 -6.77718 -165.82 34.7484 -177.389
RightUpLeg  -32.7161 -11.829 -8.97423
RightLeg  9.34174 -9.79216 -0.564239
RightFoot  1.30967 -0.690287 6.31148
RightToes  0.000482159 0.542163 -0.142577
Spine  46.3947 -1.60317 3.24428
Spine1  15.409 1.74325 -4.62694
HEad  -14.8362 -4.5356 -8.03569
LeftShoulder1  9.454 -20.4937 -33.2825
LeftArm  -16.7673 -38.2257 -37.0137
LeftForeArm  -3.15112 -28.0965 -6.22389
LeftHand  -0.25398 0.0180481 5.50724
RightShoulder  5.67325 13.5282 27.2597
RightArm  -15.833 36.7633 17.1022
RightForeArm  -34.9746 21.2949 6.75562
RightHand  0.0308162 -4.64793 11.6654
LeftUpLeg  -39.0657 26.8717 -18.8965
LeftLeg  20.6865 -5.74137 -2.05428
LeftFoot  0.496951 -1.80674 17.257
LeftToes  1.06247e-005 4.65855e-005 -8.18504e-006
189
root  48.5738 38.3472 -6.53595 -164.11 31.2778 -178.847
RightUpLeg  -33.9761 -10.8823 -10.9969
RightLeg  3.99737 -6.14406 1.46508
RightFoot  1.57359 -0.896086 7.96836
RightToes  0.000482159 0.542163 -0.142577
Spine  47.8615 -2.12971 3.9204
Spine1  15.2497 1.29007 -4.35803
HEad  -16.863 -6.30837 -6.74461
LeftShoulder1  9.37472 -21.5049 -31.357
LeftArm  -18.1427 -44.0038 -38.6519
LeftForeArm  -2.39909 -23.4181 -5.16715
LeftHand  -0.25398 0.0180481 5.50724
RightShoulder  5.74612 13.9165 26.9185
RightArm  -23.7844 39.8901 13.0553
RightForeArm  -30.0906 15.2731 7.80139
RightHand  0.363189 -1.72294 12.1415
LeftUpLeg  -41.2688 23.657 -18.7816
LeftLeg  21.8272 -6.28513 -2.42495
LeftFoot  0.63573 -1.72132 16.2546
LeftToes  1.06247e-005 4.65855e-005 -8.18504e-006
190
root  49.642 38.2636 -6.2658 -162.394 27.4732 179.627
RightUpLeg  -36.2584 -12.0211 -11.3604
RightLeg  3.80763 -2.85439 2.16575
RightFoot  4.71751 -1.21926 8.86997
RightToes  0.000482159 0.542163 -0.142577
Spine  49.8391 -2.96911 5.11545
Spine1  14.2451 0.82121 -4.29865
HEad  -18.5642 -8.24915 -5.31308
LeftShoulder1  9.44469 -22.7445 -29.805
LeftArm  -19.2329 -49.4566 -39.4415
LeftForeArm  -1.63481 -19.248 -4.61852
LeftHand  -0.25398 0.0180481 5.50724
RightShoulder  5.74736 14.0605 26.645
RightArm  -31.1335 41.8311 8.83576
RightForeArm  -27.1493 10.8952 7.74838
RightHand  0.603954 0.39338 12.0799
LeftUpLeg  -43.4197 20.1596 -18.5049
LeftLeg  22.7428 -6.72158 -2.75414
LeftFoot  1.14702 -1.71262 15.4883
LeftToes  1.06247e-005 4.65855e-005 -8.18504e-006
191
root  50.7896 38.1789 -5.9918 -160.371 24.1345 178.685
RightUpLeg  -39.2132 -13.2058 -10.8354
RightLeg  6.37074 -2.73525 2.80236
RightFoot  9.24542 -1.47036 8.45009
RightToes  0.000482159 0.542163 -0.142577
Spine  51.7501 -3.75942 6.06768
Spine1  13.9655 0.557995 -4.20264
HEad  -21.315 -9.59143 -3.95807
LeftShoulder1  9.39391 -23.3446 -28.7807
LeftArm  -20.8949 -55.6002 -38.9203
LeftForeArm  -1.46121 -15.6737 -4.43008
LeftHand  -0.25398 0.0180481 5.50724
RightShoulder  5.4513 14.4314 24.2209
RightArm  -36.7498 43.2637 5.92031
RightForeArm  -25.5971 8.25052 6.52954
RightHand  0.806242 1.45524 13.4878
LeftUpLeg  -46.1249 18.2206 -18.1005
LeftLeg  24.0476 -7.81819 -3.47186
LeftFoot  1.63977 -1.62399 14.1095
LeftToes  1.06247e-005 4.65855e-005 -8.18504e-006
192
root  51.9515 38.1152 -5.75415 -158.016 21.4116 178.705
RightUpLeg  -42.9346 -15.9044 -7.70623
RightLeg  9.77214 -2.16134 3.20279
RightFoot  11.6263 -1.38478 7.19379
RightToes  0.000482159 0.542163 -0.142577
Spine  53.8194 -4.39706 7.09253
Spine1  13.927 0.791691 -4.25356
HEad  -24.6159 -10.4499 -2.63822
LeftShoulder1  9.36868 -23.8045 -28.0784
LeftArm  -23.2334 -61.3718 -36.88
LeftForeArm  -2.02507 -13.2986 -4.22148
LeftHand  -0.25398 0.0180481 5.50724
RightShoulder  5.1136 15.1466 21.0504
RightArm  -41.2783 43.8363 2.71468
RightForeArm  -24.8241 6.77535 5.2604
RightHand  1.03901 2.22262 15.5246
LeftUpLeg  -49.4771 18.3363 -17.8076
LeftLeg  25.7336 -9.09213 -4.41312
LeftFoot  1.9693 -1.46805 12.4242
LeftToes  1.06247e-005 4.65855e-005 -8.18504e-006
193
root  53.0472 38.0545 -5.57721 -155.511 18.9467 179.405
RightUpLeg  -47.722 -20.2335 -1.07611
RightLeg  13.5434 1.2062 3.04111
RightFoot  10.8062 -0.93544 5.13939
RightToes  0.000482159 0.542163 -0.142577
Spine  55.9548 -5.17648 8.50933
Spine1  13.5163 1.24381 -4.87149
HEad  -27.4747 -10.9991 -1.21044
LeftShoulder1  9.0909 -24.3339 -26.359
LeftArm  -26.7575 -65.7656 -33.9165
LeftForeArm  -2.50393 -12.3741 -3.81962
LeftHand  -0.25398 0.0180481 5.50724
RightShoulder  4.85659 15.8373 18.5742
RightArm  -45.0196 43.9097 -1.1387
RightForeArm  -25.0166 5.72991 4.38349
RightHand  1.28662 3.41771 16.5255
LeftUpLeg  -53.5375 19.8232 -18.3811
LeftLeg  27.6622 -8.95985 -4.72024
LeftFoot  2.30372 -1.37823 11.362
LeftToes  1.06247e-005 4.65855e-005 -8.18504e-006
194
root  54.0763 37.984 -5.45879 -153.047 16.6203 179.929
RightUpLeg  -53.0095 -23.8428 6.41796
RightLeg  17.0025 4.96685 2.6237
RightFoot  9.16266 -0.365822 2.3737
RightToes  0.000482159 0.542163 -0.142577
Spine  57.81 -6.02593 9.43972
Spine1  13.1229 1.2515 -5.4638
HEad  -29.6341 -10.5044 -0.354355
LeftShoulder1  8.59613 -24.3745 -24.4672
LeftArm  -31.8643 -69.2196 -29.1725
LeftForeArm  -3.00812 -12.3249 -3.37105
LeftHand  -0.25398 0.0180481 5.50724
RightShoulder  4.63566 16.6279 16.2997
RightArm  -48.4448 44.1333 -4.68765
RightForeArm  -25.4071 4.88265 3.62141
RightHand  1.52543 5.02684 16.4656
LeftUpLeg  -58.1555 21.8947 -20.9026
LeftLeg  29.169 -6.67316 -3.67106
LeftFoot  2.85605 -1.39261 11.0049
LeftToes  1.06247e-005 4.65855e-005 -8.18504e-006
195
root  55.0548 37.9039 -5.40015 -150.644 14.6595 179.898
RightUpLeg  -57.7454 -25.2394 11.5966
RightLeg  19.9811 6.32276 2.28292
RightFoot  8.03883 0.134415 -0.460466
RightToes  0.000482159 0.542163 -0.142577
Spine  59.4826 -6.52542 9.65347
Spine1  12.554 1.12687 -5.78041
HEad  -30.7393 -9.6196 -0.243415
LeftShoulder1  8.33254 -24.5944 -23.2259
LeftArm  -38.6929 -71.8217 -22.6479
LeftForeArm  -3.65753 -12.4257 -2.88255
LeftHand  -0.25398 0.0180481 5.50724
RightShoulder  4.47009 17.0612 14.8881
RightArm  -51.7589 44.384 -8.34078
RightForeArm  -25.3874 4.67622 3.04866
RightHand  1.73079 6.54138 16.2359
LeftUpLeg  -62.929 24.1186 -25.5677
LeftLeg  29.7044 -3.39762 -1.7532
LeftFoot  3.22994 -1.44833 11.1354
LeftToes  1.06247e-005 4.65855e-005 -8.18504e-006
196
root  55.9582 37.8159 -5.41049 -148.237 13.1052 179.7
RightUpLeg  -61.376 -24.8273 13.9863
RightLeg  22.552 5.17875 2.13595
RightFoot  6.75217 0.449991 -2.53305
RightToes  0.000482159 0.542163 -0.142577
Spine  60.8541 -6.74802 9.50351
Spine1  12.2981 1.00683 -5.84325
HEad  -31.4898 -8.69495 -0.496107
LeftShoulder1  8.07285 -24.9223 -21.8943
LeftArm  -47.787 -73.6517 -14.5978
LeftForeArm  -4.18674 -12.7674 -2.1747
LeftHand  -0.25398 0.0180481 5.50724
RightShoulder  4.13343 17.0155 13.1403
RightArm  -55.7095 44.7358 -11.2413
RightForeArm  -25.0088 4.94273 2.28482
RightHand  1.89041 7.65963 16.1743
LeftUpLeg  -67.3867 26.0625 -31.0447
LeftLeg  29.3356 -1.21987 -0.393267
LeftFoot  2.94091 -1.51954 11.9448
LeftToes  1.06247e-005 4.65855e-005 -8.18504e-006
197
root  56.7752 37.7076 -5.48507 -145.858 11.76 179.741
RightUpLeg  -64.6281 -24.156 16.3238
RightLeg  24.8008 4.22912 1.90874
RightFoot  5.08434 0.584494 -3.80141
RightToes  0.000482159 0.542163 -0.142577
Spine  62.0482 -6.92945 9.53771
Spine1  11.9727 1.01265 -5.99999
HEad  -32.0722 -8.25266 -0.155203
LeftShoulder1  7.67455 -25.1519 -20.1699
LeftArm  -56.6101 -74.262 -7.14981
LeftForeArm  -3.5954 -13.7228 -1.62507
LeftHand  -0.25398 0.0180481 5.50724
RightShoulder  3.75231 16.7199 11.3895
RightArm  -60.0389 44.9011 -13.5876
RightForeArm  -24.2562 5.13885 1.26477
RightHand  2.05318 8.71443 16.2205
LeftUpLeg  -71.1677 27.2648 -35.3458
LeftLeg  28.7182 -1.19388 -0.358667
LeftFoot  2.17428 -1.56561 13.0387
LeftToes  1.06247e-005 4.65855e-005 -8.18504e-006
198
root  57.5275 37.5879 -5.59951 -143.688 10.5169 179.792
RightUpLeg  -67.4581 -23.4059 18.4925
RightLeg  26.7725 3.36308 1.6142
RightFoot  3.74445 0.680753 -4.93896
RightToes  0.000482159 0.542163 -0.142577
Spine  63.0566 -7.11466 9.72292
Spine1  11.6604 1.10748 -6.32321
HEad  -32.6131 -8.28507 1.07584
LeftShoulder1  7.26551 -25.221 -18.5784
LeftArm  -62.3774 -74.008 -1.7549
LeftForeArm  -1.9172 -15.1756 -1.77945
LeftHand  -0.25398 0.0180481 5.50724
RightShoulder  3.45658 16.4017 10.0742
RightArm  -64.0779 44.5195 -15.8134
RightForeArm  -22.5996 5.1639 0.147972
RightHand  2.32448 10.2357 16.535
LeftUpLeg  -73.9651 27.5733 -37.5886
LeftLeg  28.356 -2.5847 -1.16578
LeftFoot  1.56665 -1.51407 13.2311
LeftToes  1.06247e-005 4.65855e-005 -8.18504e-006
199
root  58.215 37.4841 -5.73255 -141.926 9.47348 179.423
RightUpLeg  -70.0436 -23.0629 20.296
RightLeg  28.6145 2.71224 1.3679
RightFoot  2.69836 0.796565 -6.31057
RightToes  0.000482159 0.542163 -0.142577
Spine  63.8817 -7.17263 9.79582
Spine1  11.5525 1.16054 -6.5072
HEad  -32.9624 -8.65552 2.48696
LeftShoulder1  7.09984 -25.4411 -17.7516
LeftArm  -65.3159 -73.6909 2.50171
LeftForeArm  -0.756434 -16.5943 -2.47591
LeftHand  -0.25398 0.0180481 5.50724
RightShoulder  3.269 16.134 9.27609
RightArm  -67.1292 43.3922 -18.1695
RightForeArm  -20.4819 5.34566 -0.733716
RightHand  2.71664 12.0574 17.2795
LeftUpLeg  -75.7985 27.255 -38.5241
LeftLeg  28.3165 -3.96289 -1.96839
LeftFoot  1.47781 -1.37861 12.1464
LeftToes  1.06247e-005 4.65855e-005 -8.18504e-006
200
root  58.8136 37.4126 -5.86911 -140.613 8.69458 178.693
RightUpLeg  -72.2494 -23.1825 21.7245
RightLeg  30.1817 2.40139 1.26797
RightFoot  1.35065 0.859515 -7.62912
RightToes  0.000482159 0.542163 -0.142577
Spine  64.623 -7.08082 9.64166
Spine1  11.666 1.06174 -6.36734
HEad  -32.9669 -9.10648 3.24283
LeftShoulder1  7.11921 -25.8125 -17.4801
LeftArm  -68.1022 -73.8246 6.96276
LeftForeArm  -1.05257 -17.5367 -3.04451
LeftHand  -0.25398 0.0180481 5.50724
RightShoulder  3.08987 15.9019 8.46928
RightArm  -69.194 42.0011 -20.2772
RightForeArm  -19.1588 5.62375 -1.31841
RightHand  3.07592 13.3417 18.2189
LeftUpLeg  -77.0191 26.6682 -39.0764
LeftLeg  28.485 -4.56958 -2.33976
LeftFoot  1.86041 -1.26169 10.7724
LeftToes  1.06247e-005 4.65855e-005 -8.18504e-006
